<svg xmlns="http://www.w3.org/2000/svg" width="1182" height="1800"><path fill="#FD6611" d="m594 95 2.147.038c58.847 1.17 116.564 18.519 166.935 48.705C785.167 157.25 804.369 174.14 823 192l1.795 1.708c7.707 7.361 14.507 15.077 20.914 23.59a267 267 0 0 0 3.775 4.843C881.925 263.26 904.871 313.155 913 365c4.122 30.675 4.147 61.401 4.101 92.285-.006 5.068-.006 10.135-.008 15.202q-.005 14.337-.021 28.674-.015 16.347-.022 32.693-.016 33.573-.05 67.146l3.427.8 4.554 1.068 2.246.524a726 726 0 0 1 15.078 3.721l2.35.604 1.858.479c51.112 13.12 103.283 20.888 155.94 24.21l3.172.2 2.727.16c2.917.258 5.762.74 8.648 1.234 1.877 27.46 2.302 54.824 2.269 82.342-.006 5.727 0 11.454.002 17.18q.005 14.406-.01 28.813-.015 16.49.003 32.98.013 14.337.006 28.674-.007 8.484.003 16.968c.027 26.419-.474 52.682-2.273 79.043l-.249 3.706a1512 1512 0 0 1-1.563 20.981l-.255 3.143c-3.815 46.685-10.681 92.504-21.445 138.099q-.703 2.99-1.396 5.984c-17.434 74.73-41.397 153.507-76.092 222.087l-1.518 3.05c-8.06 16.184-17.098 31.628-26.633 46.97a779 779 0 0 0-4.486 7.32c-14.774 24.266-31.3 47.792-49.029 69.979-1.349 1.7-2.68 3.412-4.006 5.13-6.372 8.238-13.059 16.15-19.937 23.97-1.722 1.957-3.43 3.926-5.141 5.893-4.037 4.604-8.148 9.142-12.25 13.688l-1.856 2.097c-5.663 6.368-11.554 12.459-17.585 18.477l-2.931 2.934q-3.044 3.045-6.094 6.088a4839 4839 0 0 0-7.741 7.745q-3.016 3.02-6.036 6.036a4114 4114 0 0 0-4.22 4.225c-5.022 5.003-10.14 9.803-15.537 14.398a2006 2006 0 0 0-3.676 3.21c-7.34 6.395-14.755 12.668-22.324 18.79l-3.672 3.02a641 641 0 0 1-26.203 20.41q-3.331 2.465-6.652 4.941C742.265 1621.85 715.125 1639.417 687 1656l-2.681 1.585c-13.31 7.836-26.952 14.972-40.694 22.009a647 647 0 0 0-14.5 7.656c-32.064 17.248-32.064 17.248-41.09 16.986-3.319-.385-6.012-1.594-9.035-2.986l-2.016-.92c-9.53-4.413-18.884-9.208-28.252-13.952a660 660 0 0 0-6.841-3.401c-21.811-10.693-42.957-22.517-63.74-35.078a1193 1193 0 0 0-8.866-5.282c-22.134-13.162-43.479-27.784-64.193-43.078a998 998 0 0 0-6.799-4.945c-10.121-7.344-19.875-15.022-29.454-23.059-2.57-2.144-5.173-4.244-7.776-6.348-4.366-3.564-8.568-7.28-12.735-11.074a376 376 0 0 0-6.265-5.55c-4.195-3.653-8.296-7.406-12.403-11.157a331 331 0 0 0-6.723-5.906c-4.032-3.496-7.739-7.287-11.488-11.082-2.76-2.724-5.643-5.251-8.582-7.777-4.963-4.361-9.367-9.165-13.672-14.164-2.894-3.265-5.891-6.427-8.882-9.602-6.174-6.573-12.097-13.319-17.906-20.215a432 432 0 0 0-4.071-4.723c-7.66-8.825-14.601-18.155-21.552-27.544a451 451 0 0 0-4.776-6.284c-23.989-31.127-43.92-65.497-62.398-100.098a1563 1563 0 0 0-3.146-5.854c-13.058-24.191-23.778-49.28-33.782-74.861-1.528-3.909-3.07-7.812-4.611-11.716-33.852-85.743-52.78-170.69-60.973-262.44l-.185-2.043c-3.376-38.787-4.219-77.562-4.149-116.477.01-6.077.007-12.155.007-18.232q.002-15.294.023-30.587.023-17.472.02-34.945.001-18.897.016-37.794.003-5.314.003-10.628C62.84 693.944 63.2 663.481 64 633l1.942-.151 8.815-.687 3.055-.237c61.01-4.755 120.387-13.955 178.954-32.004l3.54-1.09L263 598l-.003-2.968q-.033-35.887-.049-71.776-.007-17.355-.023-34.71-.015-15.143-.02-30.284 0-8.004-.01-16.008-.012-7.561-.008-15.124 0-2.748-.006-5.497c-.073-35.847-.073-35.847 2.744-51.258l.523-2.962C274.944 319.639 292.264 273.393 321 234l2.297-3.187c8.052-10.966 16.975-21.137 26.215-31.106a257 257 0 0 0 6.05-6.832C362.988 184.357 371.17 177.017 380 170q1.701-1.4 3.398-2.809c9.429-7.764 19.303-14.633 29.602-21.191l1.856-1.19c45.56-28.968 99.217-46.725 153.234-49.254l2.785-.118 2.95-.127c6.733-.276 13.436-.49 20.175-.311M476.813 234.813C463.909 243.034 451.97 252.34 441 263l-1.629 1.567c-30.277 29.214-50.515 66.68-62.1 106.968-3.575 13.363-4.42 26.04-4.385 39.829v4.585q.001 6.183.013 12.364c.006 4.317.006 8.635.008 12.952q.004 12.244.021 24.49.016 13.947.022 27.896.016 28.674.05 57.349c27.317-4.905 56.402-32.426 78-49l1.802-1.377c8.823-6.759 17.273-13.892 25.616-21.232 1.958-1.722 3.927-3.43 5.894-5.141q1.846-1.624 3.688-3.25l2.031-1.774c7.18-6.353 13.964-13.068 20.729-19.856q2.897-2.903 5.804-5.798c6.023-6.019 11.97-12.034 17.436-18.572q1.368-1.586 2.738-3.168c5.83-6.838 11.469-13.788 16.865-20.976a734 734 0 0 1 2.939-3.877c9.689-12.708 18.37-25.921 26.854-39.454a195 195 0 0 1 4.065-6.13L589 349v-2h2l.723 2.043c1.574 3.644 3.596 6.926 5.715 10.27l1.336 2.119C609.759 378.72 621.79 395.339 635 411l1.374 1.631c6.162 7.301 12.454 14.457 18.958 21.455 1.367 1.493 2.731 2.989 4.04 4.532 5.675 6.68 11.904 12.808 18.107 18.991a2754 2754 0 0 1 5.851 5.858c6.051 6.055 12.094 12.042 18.67 17.533q1.568 1.35 3.133 2.703c17.782 15.136 36.376 29.346 55.97 42.064a1121 1121 0 0 1 6.006 3.94c7.222 4.741 14.513 9.339 21.953 13.73l2.055 1.215a172 172 0 0 0 10.02 5.423l2.19 1.092L805 552q.07-30.382.104-60.766.014-14.11.047-28.22.03-12.313.037-24.625.003-6.507.023-13.013c.581-31.675.581-31.675-4.961-62.688l-.797-2.776C795.432 346.264 789.64 333.549 783 321l-.96-1.824c-5.174-9.72-11.319-18.481-18.04-27.176l-2.21-2.863c-6.474-8.122-13.61-15.643-20.79-23.137l-1.526-1.597c-24.22-25.204-55.491-43.728-89.036-53.487-56.662-15.545-123.447-7.028-173.625 23.897M588 520a432 432 0 0 0-3.477 3.508c-1.614 1.58-3.296 3.036-5.023 4.492-2.996 2.544-5.842 5.1-8.5 8v2l-1.734.738c-2.67 1.487-4.404 3.243-6.516 5.45-4.085 4.17-8.31 8.028-12.75 11.812l-3.227 2.785c-17.873 15.42-36.35 29.982-55.592 43.658a744 744 0 0 0-6.283 4.545C466.85 620.074 447.443 631.138 428 642l-2.798 1.573C400.973 657.153 375.732 668.578 350 679l-3.213 1.302c-51.334 20.57-105.084 35.038-159.127 46.483l-3.85.823q-3.524.747-7.058 1.454l-3.084.649-2.679.54L169 731c-1.188 3.563-1.337 6.951-1.528 10.668l-.125 2.295c-.411 7.778-.69 15.56-.902 23.346l-.063 2.283c-.504 18.598-.535 37.195-.512 55.799q.006 7.091-.004 14.182c-.033 31.776.58 63.463 2.381 95.193.193 3.398.377 6.796.56 10.195 1.61 29.66 1.61 29.66 4.943 59.164l.497 3.552c2.248 15.472 4.906 31.163 8.753 46.323 40.528 1.06 81.039 1.15 121.577 1.135a36991 36991 0 0 1 27.89 0q26.374.004 52.746-.006a74756 74756 0 0 1 45.118.001 110116 110116 0 0 0 58.395.004h2.795q9.69-.002 19.38.002 11.787.005 23.576-.003 5.997-.005 11.994 0 5.505.004 11.009-.004 2.896-.002 5.794.005c8.942-.02 17.81-.495 26.726-1.134q.027-71.111.042-142.222v-2.132l.013-70.627q.007-36.186.021-72.373a248329 248329 0 0 0 .019-85.015v-2.097q.002-16.616.012-33.232.009-16.764.007-33.527-.002-9.06.005-18.118c.022-24.905-.077-49.77-1.119-74.657zm3 535v539c4.637-.927 8.175-2.375 12.313-4.5l2.132-1.085c14.465-7.428 28.156-15.865 41.824-24.666a1097 1097 0 0 1 10.226-6.447c24.371-15.256 47.803-32.191 69.535-51.033a254 254 0 0 1 10.033-8.269c4.588-3.62 8.862-7.529 13.12-11.525 2.871-2.693 5.777-5.33 8.747-7.912 11.696-10.187 22.72-21.113 33.695-32.063l1.56-1.552c5.289-5.268 10.496-10.567 15.353-16.24 2.052-2.396 4.197-4.703 6.337-7.02 4.452-4.887 8.658-9.923 12.806-15.068 1.474-1.81 2.969-3.6 4.467-5.39C851.227 1379.6 867.65 1356.638 883 1333l1.364-2.1c26.086-40.354 50.277-83.772 68.977-128.059 1.56-3.655 3.25-7.241 4.96-10.83 3.635-7.723 6.895-15.566 10.011-23.511l.837-2.129c10.583-27.03 19.292-54.611 23.726-83.371l.365-2.276c1.192-8.664.76-16.777.76-25.724z"/></svg>